<?xml version="1.0" encoding="utf-8"?>
<!-- Generator: Adobe Illustrator 26.0.3, SVG Export Plug-In . SVG Version: 6.00 Build 0)  -->
<svg version="1.1" id="Layer_1" xmlns="http://www.w3.org/2000/svg" xmlns:xlink="http://www.w3.org/1999/xlink" x="0px" y="0px"
	 viewBox="0 0 320 320" style="enable-background:new 0 0 320 320;" xml:space="preserve">
<style type="text/css">
	.st0{fill:#383838;}
	.st1{fill:#A8A8A8;}
</style>
<g transform="translate(0.000000,320.000000) scale(0.100000,-0.100000)">
	<path id="node1" class="st0" d="M1440,3091c0-4-26-13-57-20c-95-19-216-86-304-169c-73-69-81-73-111-67c-18,4-42,14-53,21
		c-28,20-214,19-241-1c-10-8-27-15-37-15c-77-1-254-169-273-260c-3-14-12-37-20-52c-19-35-20-215,0-243c7-11,16-31,19-45
		c4-14,26-54,49-90c32-48,64-79,126-123c75-54,82-62,77-86c-3-14-10-57-15-96c-16-116-26-159-40-185c-21-39-32-89-40-188
		c-5-63-12-98-24-110c-9-10-16-29-16-43c0-13-7-42-15-64s-14-56-15-76c0-41,27-136,46-159c6-8,15-25,18-36c15-48,201-214,240-214
		c17,0,46-32,46-51c0-25,67-148,119-218c69-93,185-197,280-253c68-39,171-88,185-88c8,0,29-6,48-14s59-18,89-22s60-11,67-17
		c8-6,16-6,25,0c6,6,36,13,66,17s70,14,89,22s40,14,48,14c14,0,117,49,185,88c99,58,206,155,280,254c55,75,119,193,119,222
		c0,8,25,27,55,43c159,80,306,289,293,416c-6,57-27,136-45,172c-9,17-19,71-23,120c-8,97-19,146-40,185c-14,26-24,69-40,185
		c-5,39-12,82-15,96c-5,24,2,32,77,86c62,44,94,75,126,123c23,36,45,76,49,90c3,14,12,34,19,45c20,28,19,214-1,241
		c-8,10-15,27-15,37c-1,77-169,254-260,273c-14,3-37,12-52,20c-36,19-216,20-243,0c-11-7-35-17-53-21c-30-6-38-2-111,67
		c-88,83-209,150-304,169c-31,7-57,16-57,20c0,5-72,9-160,9S1440,3096,1440,3091z M1761,2841c124-42,219-113,261-196
		c11-22,31-55,45-72c23-31,28-33,86-33c53,0,67,4,97,28c61,49,106,65,174,60c117-8,196-88,204-205c5-67-15-121-61-171
		c-27-29-89-62-116-62c-29,0-80-33-102-67c-24-35-25-105-3-213c9-44,14-86,11-93c-16-42-260-62-757-62s-741,20-757,62
		c-3,7,2,49,11,93s16,107,16,141c0,57-2,62-42,99c-28,28-50,40-70,40c-35,0-95,30-125,62c-46,50-66,104-61,171c8,117,87,197,204,205
		c68,5,113-11,174-60c29-24,44-28,96-28c69,0,85,12,124,90c28,57,103,135,155,163c96,51,156,65,270,66
		C1677,2859,1719,2855,1761,2841z M1190,1521c97-13,723-13,820,0c41,5,123,12,181,15l106,6l7-78c9-105,29-178,50-182
		c9-2,32,10,52,27c19,17,38,31,42,31c23-1,52-47,74-121c14-45,13-49-13-104c-15-31-41-71-58-88c-32-34-100-73-142-81
		c-37-8-86-62-94-103c-3-20-10-43-15-52s-15-29-23-46c-39-84-64-118-145-196c-48-47-100-92-117-101c-16-8-55-28-85-45
		c-161-87-299-87-460,0c-30,17-68,37-85,45c-43,22-201,179-224,223c-11,21-24,46-30,56c-18,34-51,122-51,136c0,25-69,84-105,90
		c-59,10-146,86-181,157c-28,58-30,65-18,99c7,20,13,48,14,63c0,25,39,68,61,68c5,0,24-14,43-31c20-17,43-29,52-27
		c21,4,41,77,50,182l7,78l106-6C1067,1533,1149,1526,1190,1521z"/>
	<path id="node2" class="st0" d="M1115,1343c-50-33-67-57-80-108c-32-121,78-231,200-200c51,13,75,30,108,80c29,43,36,100,16,138
		c-17,32-70,87-101,103C1215,1378,1160,1373,1115,1343z"/>
	<path id="node3" class="st0" d="M1945,1358c-32-17-85-71-101-100c-22-43-17-98,13-143c33-50,57-67,108-80c122-31,232,79,200,200
		c-13,51-30,75-80,108C2042,1372,1982,1379,1945,1358z"/>
</g>
<g transform="translate(0.000000,320.000000) scale(0.100000,-0.100000)">
	<path id="node5" class="st1" d="M1425,2836c-33-12-78-32-100-43c-52-28-127-106-155-163c-39-78-55-90-124-90c-52,0-67,4-96,28
		c-61,49-106,65-174,60c-117-8-196-88-204-205c-5-67,15-121,61-171c30-32,90-62,125-62c20,0,42-12,70-40c40-37,42-42,42-99
		c0-34-7-97-16-141s-14-86-11-93c16-42,260-62,757-62s741,20,757,62c3,7-2,49-11,93c-22,108-21,178,3,213c22,34,73,67,102,67
		c27,0,89,33,116,62c46,50,66,104,61,171c-8,117-87,197-204,205c-68,5-113-11-174-60c-30-24-44-28-97-28c-58,0-63,2-86,33
		c-14,17-34,50-45,72c-42,83-137,154-261,196C1678,2868,1506,2866,1425,2836z"/>
	<path id="node6" class="st1" d="M896,1464c-9-105-29-178-50-182c-9-2-32,10-52,27c-19,17-38,31-43,31c-22,0-61-43-61-68
		c-1-15-7-43-14-63c-12-34-10-41,18-99c35-71,122-147,181-157c36-6,105-65,105-90c0-14,33-102,51-136c6-10,19-35,30-56
		c23-44,181-201,224-223c17-8,55-28,85-45c161-87,299-87,460,0c30,17,69,37,85,45c17,9,69,54,117,101c81,78,106,112,145,196
		c8,17,18,37,23,46s12,32,15,52c8,41,57,95,94,103c42,8,110,47,142,81c17,17,43,57,58,88c26,55,27,59,13,104c-22,74-51,120-74,121
		c-4,0-23-14-42-31c-20-17-43-29-52-27c-21,4-41,77-50,182l-7,78l-106-6c-58-3-140-10-181-15c-97-13-723-13-820,0
		c-41,5-123,12-181,15l-106,6L896,1464z M1258,1356c31-16,84-71,101-103c28-55-3-149-63-193c-65-47-164-38-219,19
		c-56,58-63,153-17,217C1106,1359,1198,1387,1258,1356z M2085,1343c50-33,67-57,80-108c32-121-78-231-200-200c-51,13-75,30-108,80
		c-30,45-35,100-13,143c16,29,69,83,101,100C1982,1379,2042,1372,2085,1343z"/>
</g>
</svg>
